PathFileType	4	(X/Y/Z)	C:/Users/beibeiliu/ov580/test_trc/User2\sequence.10_training_dense_left.trc
DataRate	CameraRate	NumFrames	NumMarkers	Units	OrigDataRate	OrigDataStartFrame	OrigNumFrames
120	120	7	19	mm	120	29	57
Frame#	Time	ThumbCMC			ThumbMCP			ThumbIP			ThumbTip			IndexMCP			IndexPIP			IndexTip			MiddleMCP			MiddlePIP			MiddleTip			RingMCP			RingPIP			RingTip			PinkyMCP			PinkyPIP			PinkyTip			BackHand1			BackHand2			BackHand3	
		X0	Y0	Z0	X1	Y1	Z1	X2	Y2	Z2	X3	Y3	Z3	X4	Y4	Z4	X5	Y5	Z5	X6	Y6	Z6	X7	Y7	Z7	X8	Y8	Z8	X9	Y9	Z9	X10	Y10	Z10	X11	Y11	Z11	X12	Y12	Z12	X13	Y13	Z13	X14	Y14	Z14	X15	Y15	Z15	X16	Y16	Z16	X17	Y17	Z17	X18	Y18	Z18	
28	0.233333	-210.561	2.66931	-36.1605	-191.282	-3.54391	-64.5226	-185.244	-12.4024	-100.641	-189.966	-27.7211	-122.223	-260.516	22.125	-96.3797	-265.627	32.0599	-119.74	-274.755	42.9903	-148.277	-258.386	-7.23737	-110.693	-230.484	-20.4532	-136.6	-203.769	-37.2438	-118.427	-256.879	-34.7537	-113.732	-227.68	-41.5955	-125.993	-205.093	-45.7091	-101.112	-258.607	-55.2123	-100.071	-226.58	-60.8854	-113.175	-205.82	-57.9757	-88.4208	-274.324	-36.4633	-50.2141	-265.934	-39.7013	-11.6897	-257.491	-5.19557	-28.8832	
29	0.241667	-191.673	-13.6498	-32.1455	-177.902	-23.4786	-65.8583	-169.87	-32.6425	-100.77	-182.815	-48.2041	-123.775	-234.698	18.0671	-94.8981	-234.974	31.5635	-120.023	-238.114	44.4309	-147.07	-245.38	-11.1131	-112.564	-222.674	-31.1604	-134.801	-196.478	-53.8379	-111.814	-249.834	-34.1015	-110.399	-226.769	-51.5427	-123.446	-206.668	-64.4373	-97.8798	-255.944	-52.7715	-96.8338	-228.29	-68.6358	-110.915	-208.963	-69.8749	-84.8964	-260.373	-26.9656	-43.741	-255.992	-33.0967	-12.5896	-236.918	-3.43824	-27.5209	
30	0.25	-179.519	-29.1218	-34.5588	-161.961	-43.7171	-66.7565	-165.176	-59.6023	-95.034	-181.443	-71.8344	-117.901	-206.861	9.71893	-100.802	-209.762	14.5119	-122.869	-212.528	25.9347	-153.137	-228.054	-21.9538	-109.792	-212.171	-50.4584	-131.838	-194.893	-74.3662	-106.94	-238.653	-42.9754	-110.301	-220.588	-69.6328	-118.201	-199.999	-76.3331	-89.7628	-249.171	-60.5403	-95.2154	-227.341	-81.8436	-103.757	-205.695	-84.1238	-74.115	-251.41	-27.0961	-45.949	-245.097	-31.5861	-10.2397	-219.263	-8.63416	-29.757	
31	0.258333	-164.135	-36.2619	-29.9733	-146.594	-58.7162	-60.1495	-151.695	-76.4657	-87.127	-165.728	-91.8182	-110.266	-190.694	-7.45104	-105.065	-186.521	-3.29725	-128.31	-187.687	2.33317	-156.939	-207.768	-37.9321	-113.907	-193.225	-69.489	-124.622	-176.364	-89.3404	-94.6717	-224.319	-58.3768	-104.403	-206.826	-82.4632	-111.514	-187.994	-90.9254	-79.621	-236.87	-72.2505	-87.9751	-211.902	-98.0356	-90.8246	-196.428	-93.9178	-64.8415	-235.386	-29.8449	-46.2985	-229.844	-30.082	-10.3504	-199.254	-11.9262	-33.3845	
32	0.266667	-153.395	-33.9102	-28.4993	-132.341	-58.2087	-49.3346	-127.78	-84.0768	-75.2032	-144.835	-102.477	-91.6435	-174.182	-21.3136	-103.571	-171.772	-24.2098	-133.089	-171.828	-25.6467	-160.808	-190.177	-55.8806	-108.701	-169.841	-86.9525	-115.916	-153.471	-96.7622	-80.4047	-199.61	-74.9262	-101.015	-180.72	-100.428	-99.8287	-165.239	-99.8651	-66.508	-212.545	-91.7223	-82.5173	-183.083	-106.495	-76.0826	-174.966	-93.2712	-46.2279	-223.971	-40.9953	-50.9764	-221.519	-33.4978	-14.347	-196.124	-19.0791	-35.9331	
33	0.275	-150.206	-20.0541	-26.9929	-121.247	-43.6866	-42.8186	-108.692	-73.5919	-64.1079	-116.544	-95.9102	-73.3344	-168.514	-34.0386	-106.069	-161.927	-39.1367	-133.238	-155.103	-45.3463	-160.324	-167.389	-68.1614	-105.714	-141.108	-91.7159	-102.714	-127.508	-91.788	-66.5234	-171.908	-88.7318	-92.9382	-148.637	-104.522	-83.5595	-138.809	-93.7757	-48.463	-180.604	-105.546	-73.4321	-152.775	-106.121	-57.8017	-152.129	-89.7559	-30.8123	-212.012	-51.8182	-53.9238	-219.384	-40.9626	-23.2958	-196.882	-20.9502	-43.3199	
34	0.283333	-158.726	-10.2103	-27.4231	-120.555	-23.0375	-35.8992	-99.9774	-48.1565	-50.2023	-99.61	-76.2473	-60.2072	-161.904	-34.7675	-104.289	-149.852	-44.2232	-133.647	-141.687	-51.5112	-153.538	-150.303	-69.2504	-100.576	-117.881	-83.3399	-88.8746	-111.425	-71.6314	-50.7654	-152.599	-90.4319	-83.0557	-121.408	-92.1489	-69.7125	-121.274	-76.2567	-36.1347	-160.769	-102.581	-60.9764	-129.474	-94.3567	-44.1417	-137.887	-71.3834	-23.2627	-203.49	-60.9621	-53.2361	-218.686	-48.6849	-21.6272	-199.441	-26.925	-46.4671	
